<?xml version="1.0" encoding="UTF-8" standalone="no"?>
<!DOCTYPE svg PUBLIC "-//W3C//DTD SVG 1.1//EN"
 "http://www.w3.org/Graphics/SVG/1.1/DTD/svg11.dtd">
<!-- Generated by graphviz version 12.2.1 (20241206.2353)
 -->
<!-- Title: SimpleChain Pages: 1 -->
<svg width="193pt" height="98pt"
 viewBox="0.00 0.00 192.51 98.00" xmlns="http://www.w3.org/2000/svg" xmlns:xlink="http://www.w3.org/1999/xlink">
<g id="graph0" class="graph" transform="scale(1 1) rotate(0) translate(4 94)">
<title>SimpleChain</title>
<polygon fill="white" stroke="none" points="-4,4 -4,-94 188.51,-94 188.51,4 -4,4"/>
<!-- n0 -->
<g id="node1" class="node">
<title>n0</title>
<ellipse fill="none" stroke="black" cx="47.26" cy="-18" rx="27" ry="18"/>
<text text-anchor="middle" x="47.26" y="-12.95" font-family="Times,serif" font-size="14.00">&#39;t0</text>
</g>
<!-- n1 -->
<g id="node2" class="node">
<title>n1</title>
<ellipse fill="none" stroke="black" cx="157.51" cy="-18" rx="27" ry="18"/>
<text text-anchor="middle" x="157.51" y="-12.95" font-family="Times,serif" font-size="14.00">&#39;t1</text>
</g>
<!-- n0&#45;&gt;n1 -->
<g id="edge1" class="edge">
<title>n0&#45;&gt;n1</title>
<path fill="none" stroke="black" d="M74.74,-18C88.08,-18 104.47,-18 119.07,-18"/>
<polygon fill="black" stroke="black" points="118.79,-21.5 128.79,-18 118.79,-14.5 118.79,-21.5"/>
</g>
<!-- n2 -->
<g id="node3" class="node">
<title>n2</title>
<ellipse fill="none" stroke="black" cx="47.26" cy="-72" rx="47.26" ry="18"/>
<text text-anchor="middle" x="47.26" y="-66.95" font-family="Times,serif" font-size="14.00">Unknown</text>
</g>
<!-- n3 -->
<g id="node4" class="node">
<title>n3</title>
<ellipse fill="none" stroke="black" cx="157.51" cy="-72" rx="27" ry="18"/>
<text text-anchor="middle" x="157.51" y="-66.95" font-family="Times,serif" font-size="14.00">&#39;t4</text>
</g>
<!-- n2&#45;&gt;n3 -->
<g id="edge2" class="edge">
<title>n2&#45;&gt;n3</title>
<path fill="none" stroke="black" d="M94.8,-72C102.86,-72 111.16,-72 118.95,-72"/>
<polygon fill="black" stroke="black" points="118.78,-75.5 128.78,-72 118.78,-68.5 118.78,-75.5"/>
</g>
</g>
</svg>
